<svg width="32" height="32" viewBox="0 0 32 32" fill="none" xmlns="http://www.w3.org/2000/svg">
<path d="M15.5332 1.40576C12.4635 1.40576 9.28673 1.90548 7.1094 3.22615C3.5757 5.40347 2.54058 9.65105 2.68335 13.5774C2.79044 16.9683 3.68278 20.6091 6.10996 23.1076C8.39436 25.4991 13.106 26.57 16.3541 26.57C16.4969 26.57 16.6396 26.677 16.6396 26.8555V30.2821C16.6396 30.6034 16.8895 30.8889 17.2465 30.8889C17.2822 30.8889 17.2822 30.8889 17.3178 30.8889C17.4606 30.8889 17.5677 30.8175 17.6391 30.7461C19.2453 29.3541 20.8872 27.9263 22.4577 26.4986C23.9569 25.1065 25.6702 23.6787 26.8124 22.0011C29.2753 18.4674 29.6679 13.506 28.847 9.3655C28.0617 5.40347 25.2419 2.79782 21.3156 1.97686C19.6379 1.61992 17.6034 1.40576 15.5332 1.40576Z" fill="#00C6D7"/>
</svg>
